<svg width="826" height="475" viewBox="0 0 826 475" fill="none" xmlns="http://www.w3.org/2000/svg">
<path d="M10.9635 472.24C4.80347 468.48 2.78347 460.83 0.683467 433.27C-0.666533 415.4 0.0434659 385.21 2.28347 366.24C13.0935 274.32 50.3635 196.29 114.653 130.95C166.023 78.7403 225.673 41.7403 293.783 19.8303C336.663 6.04031 375.363 -0.0496947 419.783 0.000305269C503.113 0.100305 576.423 18.9803 643.783 57.7103C703.653 92.1303 752.623 138.03 786.103 191.1C795.683 206.28 803.233 220.27 801.853 220.27C801.253 220.27 796.603 219.61 791.523 218.81C766.223 214.8 720.543 211.28 693.353 211.26C677.723 211.24 669.103 209.72 662.443 205.8C660.153 204.46 652.663 198.36 645.783 192.25C630.123 178.33 622.873 173.12 612.343 168.19C595.103 160.1 575.083 156.54 541.753 155.6C502.113 154.48 450.823 160.07 416.283 169.26C382.873 178.16 369.373 188.73 354.733 217.46C350.813 225.14 347.873 229.7 346.473 230.3C345.263 230.81 329.203 233.7 310.783 236.73C253.233 246.19 195.983 257.76 164.683 266.26C131.743 275.2 110.703 286.01 92.2835 303.45C72.8235 321.87 62.2435 339.87 56.1335 365C52.4535 380.13 52.2835 402.41 55.7235 419.27C58.1035 430.95 60.9435 439.12 63.0935 440.48C65.3035 441.89 69.3935 441.28 95.3735 435.73C109.623 432.69 129.603 428.45 139.783 426.31C149.963 424.18 161.433 421.7 165.283 420.8C177.043 418.05 235.653 405.73 265.073 399.82C320.103 388.78 383.103 377.82 440.283 369.34C572.093 349.79 689.153 342.76 756.783 350.32C783.953 353.36 810.053 359.41 822.093 365.46C825.433 367.13 825.863 367.76 825.593 370.47C825.393 372.45 824.293 374.31 822.563 375.6C819.543 377.84 820.923 378.01 801.553 372.91C781.733 367.69 747.383 364.28 714.443 364.27C645.983 364.26 520.963 378.53 394.283 400.82C386.583 402.17 373.763 404.42 365.783 405.81C304.733 416.47 204.103 436.26 104.283 457.26C75.1335 463.39 44.9835 469.72 37.2835 471.33C20.6135 474.82 15.4935 475 10.9635 472.24ZM98.2735 420.47C86.6635 416.46 78.8535 409.66 73.9335 399.27C71.5535 394.25 71.3235 392.67 71.3235 381.27C71.3335 366.83 72.8735 360.95 80.6335 345.79C86.7235 333.88 94.6435 323.55 106.013 312.69C128.463 291.24 149.543 281.58 196.173 271.33C237.513 262.25 347.293 243.32 358.883 243.28C361.303 243.27 361.633 242.68 363.783 234.56C365.043 229.78 368.323 221.37 371.073 215.89C385.453 187.17 412.103 175.89 482.783 168.61C506.153 166.21 553.133 166.17 568.283 168.55C585.603 171.26 597.273 174.74 609.283 180.76C620.163 186.21 623.863 188.98 642.353 205.51C652.333 214.44 660.793 219 669.703 220.26C673.153 220.75 687.523 221.42 701.633 221.75C743.013 222.72 767.313 225.29 785.783 230.65C808.863 237.36 813.723 242.52 813.763 260.44C813.783 268.83 814.183 271.12 816.783 277.61C822.153 291.01 820.403 300.6 810.573 311.77C790.593 334.47 744.883 345.71 738.143 329.58C736.563 325.81 736.673 317.78 738.373 312.27C738.953 310.37 737.123 311.64 730.783 317.54C718.063 329.34 708.073 333.36 700.843 329.57C698.703 328.45 697.043 326.64 696.453 324.77C695.933 323.12 695.393 321.62 695.243 321.45C695.093 321.27 692.243 322.99 688.913 325.26C677.463 333.08 664.093 335.58 656.973 331.25C653.663 329.23 649.883 322.67 649.773 318.77C649.723 316.92 649.563 316.96 647.693 319.27C635.733 334.04 622.003 340.54 612.793 335.78C609.243 333.94 606.783 330.57 606.783 327.55C606.783 326.29 606.443 325.27 606.023 325.27C605.613 325.27 602.793 327.3 599.773 329.78C592.813 335.49 586.653 338.39 581.033 338.6C577.273 338.74 576.233 338.33 574.083 335.84C571.983 333.39 571.633 332.15 572.003 328.34C572.433 323.86 579.263 307.85 582.463 303.81C583.353 302.69 580.843 305.05 576.883 309.06C572.933 313.07 567.033 320.5 563.793 325.56C554.923 339.41 553.193 341.27 549.183 341.27C544.613 341.27 541.373 338.07 542.263 334.43C542.623 332.97 546.253 325.5 550.323 317.83C554.403 310.17 557.523 303.67 557.243 303.4C555.693 301.85 539.983 320.3 529.753 335.68C522.013 347.32 519.263 349.17 513.283 346.78C510.513 345.67 510.293 345.22 510.443 340.92C510.533 338.36 510.383 336.27 510.113 336.27C509.843 336.27 507.073 338.47 503.953 341.16C495.523 348.42 490.273 350.74 483.023 350.38C480.373 350.25 476.793 345.04 476.783 341.31C476.783 338.96 476.603 339.02 472.533 342.94C461.563 353.5 453.403 357.6 447.903 355.32C444.663 353.98 441.783 349.06 441.783 344.87C441.783 342.4 441.383 342.6 434.033 348.76C422.023 358.83 410.323 364.23 400.463 364.26C394.703 364.28 388.573 360.36 386.673 355.44C385.803 353.18 385.593 353.28 379.033 359.22C370.843 366.62 365.683 369.27 359.463 369.27C353.413 369.27 350.783 366.85 350.783 361.29V357.31L346.533 361.95C337.103 372.24 329.553 376.43 323.303 374.87C320.663 374.2 317.783 369.74 317.783 366.3C317.783 364.55 316.743 365.08 311.073 369.76C298.953 379.76 290.653 382.14 286.153 376.92C284.633 375.14 283.783 372.9 283.783 370.63C283.783 366.3 287.683 356.35 293.013 347.12C295.213 343.3 296.843 340 296.633 339.78C295.723 338.87 279.913 357.96 272.173 369.31C267.533 376.12 262.803 382.68 261.663 383.9C257.013 388.85 249.783 387.19 249.783 381.17V378.11L244.063 383.21C233.893 392.27 225.983 394.56 221.233 389.82C219.883 388.47 218.783 386.44 218.783 385.32C218.783 382.27 217.713 382.76 212.243 388.32C202.623 398.1 193.683 400.99 188.873 395.87C174.763 380.84 207.483 331.17 233.813 327.66C239.633 326.89 245.413 329.17 246.793 332.79C248.943 338.44 248.423 340.19 237.393 364.77C230.773 379.53 233.433 380.13 246.403 366.78C256.313 356.57 262.033 348.57 268.773 335.49C274.813 323.77 279.983 320.47 284.783 325.27C287.373 327.86 287.333 328.23 283.773 335.3C282.113 338.58 281.103 341.24 281.523 341.21C281.943 341.17 284.763 338.23 287.783 334.66C294.503 326.73 301.553 321.34 306.173 320.59C309.023 320.13 310.113 320.51 312.333 322.73C316.143 326.54 315.353 330.5 307.463 347.11C303.903 354.62 300.733 361.56 300.413 362.52C299.053 366.7 303.713 363.68 312.753 354.52C321.973 345.17 326.733 338.5 335.173 323.06C339.233 315.63 341.843 313.27 346.003 313.27C349.733 313.27 353.093 316.68 352.223 319.57C351.863 320.78 348.023 328.3 343.703 336.28C336.153 350.2 333.393 357.27 335.513 357.27C337.543 357.27 346.363 348.5 352.063 340.81C355.303 336.44 360.463 328.61 363.513 323.42C366.563 318.23 369.903 313.15 370.923 312.13C373.563 309.49 380.343 309.58 381.793 312.28C383.423 315.33 381.783 319.83 373.733 334.36C366.953 346.61 363.773 354.59 365.133 355.95C367.173 358 383.493 342.48 391.613 330.77C399.093 319.98 411.774 307.56 419.434 303.51C432.674 296.51 442.783 298.83 442.783 308.87C442.783 314.72 435.663 322.63 430.893 322.07C428.463 321.79 428.293 321.45 428.443 317.02C428.533 314.41 428.233 312.27 427.783 312.27C425.803 312.27 416.713 320.59 412.353 326.39C401.963 340.21 399.183 351.27 406.093 351.27C409.443 351.27 421.473 345.16 428.283 340C435.193 334.77 446.053 323.6 453.283 314.29C467.203 296.37 489.044 285.22 499.564 290.66C506.664 294.33 506.363 300.59 498.243 317.74C492.643 329.58 490.573 336.27 492.513 336.27C494.083 336.27 500.793 331.44 506.783 326.01C515.823 317.8 522.413 309.34 527.823 299.01C533.253 288.63 536.663 285.52 541.363 286.7C546.453 287.98 546.313 292.44 540.823 303.18C538.903 306.95 539.673 306.38 547.983 297.9C553.093 292.68 558.553 287.93 560.103 287.34C564.133 285.81 567.983 286.02 570.683 287.91C572.803 289.4 572.973 290.09 572.473 295.01L571.903 300.47L578.093 294.58C581.503 291.34 585.763 287.65 587.583 286.38C594.003 281.88 601.783 284.15 601.783 290.52C601.783 292.14 599.133 298.71 595.903 305.12C588.973 318.84 587.153 324.27 589.483 324.27C591.843 324.27 599.933 317.94 606.423 311C609.643 307.55 615.603 299.21 619.663 292.47C629.233 276.57 632.253 274.25 639.213 277.42C643.323 279.29 643.243 281.59 638.833 288.57C636.603 292.1 634.783 295.66 634.783 296.48C634.783 297.3 636.613 298.79 638.843 299.8C642.643 301.51 645.843 304.55 648.343 308.81C649.263 310.38 650.193 309.51 655.603 302.02C663.423 291.19 673.213 282.17 681.673 278C694.093 271.89 704.783 274.34 704.783 283.3C704.783 290.12 697.483 297.98 692.333 296.69C689.643 296.02 689.563 295.81 690.113 291.13C690.433 288.46 690.323 286.27 689.883 286.27C689.433 286.27 687.003 287.85 684.473 289.78C675.353 296.74 665.813 310.92 665.793 317.54C665.763 326.03 681.053 320.66 699.333 305.78C703.833 302.11 705.643 301.22 708.143 301.46C712.013 301.84 712.683 304.57 710.343 310.41C707.643 317.15 710.693 318.25 717.883 313.14C724.343 308.55 724.293 308.67 721.423 305.25C712.033 294.09 730.373 270.36 749.843 268.49C753.703 268.12 754.843 268.42 756.563 270.27C758.513 272.35 758.773 272.39 760.933 270.88C766.383 267.06 772.513 270.39 771.503 276.64C771.193 278.51 767.913 284.88 764.203 290.78C757.063 302.17 750.813 315.3 750.793 319C750.773 322.58 754.903 324.62 760.533 323.81C772.263 322.11 792.403 311.23 799.213 302.92C805.773 294.91 806.213 290.82 801.533 281.35C798.603 275.42 798.253 273.73 797.943 264.27C797.553 252.07 797.113 251.28 788.983 248.24C766.913 239.99 732.763 237.06 684.023 239.26C660.373 240.33 654.483 240.33 651.253 239.26C648.433 238.33 643.193 233.97 632.783 223.87C624.783 216.11 615.553 207.98 612.263 205.8C594.473 193.99 569.363 188.26 535.423 188.28C494.793 188.29 425.913 198.81 409.543 207.49C402.213 211.38 395.433 218.64 391.753 226.55C388.803 232.89 386.683 242.07 388.413 241C388.923 240.68 398.783 239.51 410.313 238.4C468.513 232.78 515.513 231.09 552.073 233.32C573.903 234.65 580.653 235.7 583.113 238.16C585.563 240.6 584.683 244.99 581.503 246.17C580.283 246.62 570.063 247.3 558.783 247.67C547.503 248.04 535.813 248.54 532.783 248.77C529.753 249.01 521.203 249.46 513.783 249.78C486.473 250.96 433.223 255.97 390.783 261.34C329.473 269.11 205.663 287.45 181.283 292.38C155.343 297.62 137.163 306.97 119.443 324.18C99.1335 343.92 87.7535 364.94 87.8035 382.63C87.8435 394.33 92.8035 401.82 103.133 405.77C110.183 408.46 125.203 407.51 133.763 403.84C151.263 396.31 162.713 382.8 163.613 368.58C164.123 360.66 163.023 360.07 153.813 363.26C146.113 365.93 142.293 365.49 140.593 361.74C138.833 357.89 140.933 354.52 146.543 352.15C164.623 344.52 173.993 337.73 178.393 329.05C181.343 323.22 181.443 316.01 178.573 315.46C175.873 314.95 170.053 318.17 164.443 323.28C157.953 329.18 155.473 330.48 152.293 329.68C149.323 328.94 148.033 325.22 149.563 321.85C150.723 319.32 159.343 311.78 164.933 308.42C170.273 305.21 179.493 302.27 184.193 302.27C192.433 302.28 198.713 309.48 198.763 318.98C198.803 327.46 195.323 333.99 185.683 343.47L176.853 352.16L178.933 356.88C181.783 363.33 181.183 375.34 177.593 383.27C167.783 405 138.973 422.33 112.803 422.24C106.443 422.22 101.623 421.63 98.2735 420.47ZM211.393 375.07C217.833 368.09 232.783 344.54 232.783 341.39C232.783 337.61 218.143 351.22 210.833 361.79C205.213 369.92 201.783 377.17 201.783 380.92V383.41L204.593 381.4C206.143 380.3 209.203 377.45 211.393 375.07ZM464.513 336.3C474.213 328.57 493.413 301.27 489.153 301.27C487.503 301.27 480.753 306.08 475.963 310.67C466.263 319.97 457.783 332.83 457.783 338.24C457.783 341.11 458.853 340.81 464.513 336.3ZM628.613 321.28C634.153 317.26 635.553 311.41 631.573 308.91C628.433 306.93 620.783 316.02 620.783 321.72C620.783 325.2 623.403 325.05 628.613 321.28ZM740.953 295.25C745.473 291.38 750.783 283.48 750.783 280.62C750.783 279.44 750.333 279.45 747.903 280.71C741.093 284.23 733.783 292.79 733.783 297.25C733.783 300.26 735.753 299.71 740.953 295.25Z" fill="black"/>
</svg>
