<svg width="852" height="582" viewBox="0 0 852 582" fill="none" xmlns="http://www.w3.org/2000/svg">
<path d="M123.683 580.394C118.553 578.754 113.853 574.064 113.853 570.584C113.863 567.274 117.343 562.284 121.623 559.454C130.243 553.744 176.143 540.824 222.853 530.944C230.833 529.264 243.433 526.554 250.853 524.924C267.043 521.374 330.343 509.084 351.353 505.414C359.603 503.974 373.553 501.504 382.353 499.934C426.053 492.134 486.593 482.924 553.353 473.894C569.853 471.664 587.853 469.194 593.353 468.424C609.593 466.124 643.653 462.294 686.853 457.914C722.053 454.354 782.813 453.314 809.853 455.824C823.523 457.084 840.283 459.914 844.853 461.734C852.163 464.624 853.973 470.954 848.933 475.994C845.803 479.124 844.393 479.454 840.513 477.974C825.073 472.104 774.733 469.244 734.353 471.944C718.033 473.044 671.673 478.024 654.853 480.484C649.073 481.334 639.403 482.664 633.353 483.444C623.323 484.734 604.143 487.724 563.353 494.344C402.243 520.494 238.073 553.954 157.853 577.004C141.243 581.774 131.113 582.774 123.683 580.394ZM29.0031 548.954C21.8031 547.814 15.5931 545.344 13.1331 542.634C8.08311 537.094 3.30312 513.864 0.793117 482.684C-0.776883 463.144 0.123113 406.024 2.27311 388.914C7.89311 344.284 15.6731 313.294 31.0431 274.414C54.2731 215.644 87.8431 165.344 133.503 120.914C200.863 55.3744 283.103 15.2544 375.483 2.86444C395.663 0.154443 437.623 -0.86555 459.563 0.82445C528.963 6.15445 598.533 30.3244 657.703 69.6544C740.653 124.794 801.823 206.314 828.343 297.064C834.643 318.634 839.573 349.734 836.953 351.354C836.333 351.734 834.083 350.684 831.973 349.004C825.353 343.764 819.323 341.724 808.853 341.174C794.313 340.404 782.753 344.134 770.053 353.674L764.763 357.644L758.563 355.104C750.383 351.764 737.923 351.014 728.893 353.324C722.573 354.944 718.753 356.804 701.353 366.764C695.683 370.004 691.173 371.914 689.153 371.914C687.393 371.914 682.723 370.224 678.773 368.164C672.193 364.724 670.913 364.414 663.463 364.414C655.823 364.414 654.733 364.704 645.693 369.074C635.153 374.164 629.973 375.464 616.353 376.424C611.403 376.774 601.503 377.684 594.353 378.444C587.203 379.194 575.733 380.314 568.853 380.914C554.033 382.204 548.433 384.434 540.803 392.064L535.853 397.004L531.293 392.064C525.573 385.844 518.723 382.754 509.353 382.174C494.713 381.254 479.883 386.594 464.493 398.334L455.643 405.084L452.903 402.464C451.403 401.024 447.843 398.954 445.003 397.874C431.483 392.744 413.873 397.824 399.433 411.024L393.813 416.154L390.083 413.704C380.233 407.234 368.083 407.344 358.753 413.984C355.833 416.064 355.703 416.074 352.063 414.304C349.953 413.274 345.323 412.334 341.353 412.124C335.163 411.784 333.713 412.074 328.873 414.624C325.133 416.584 322.003 419.324 319.053 423.204C316.663 426.344 314.283 428.914 313.763 428.914C313.233 428.914 311.123 427.794 309.063 426.434C304.533 423.434 295.823 421.604 290.353 422.504C288.153 422.864 283.953 424.044 281.013 425.144C275.843 427.064 275.483 427.074 270.173 425.404C263.623 423.344 256.783 423.834 252.993 426.644C251.543 427.714 248.723 431.384 246.723 434.794C244.723 438.204 242.303 441.864 241.333 442.934C239.613 444.834 239.493 444.804 234.853 440.914C227.923 435.114 221.793 432.784 211.853 432.184C199.123 431.414 190.163 434.244 173.273 444.404C171.463 445.494 169.453 445.974 168.413 445.574C166.913 445.004 166.773 444.304 167.493 441.154C167.963 439.094 168.333 433.134 168.313 427.914C168.273 416.324 166.163 411.264 157.843 402.824C149.333 394.184 143.923 392.414 126.353 392.474C113.773 392.524 111.553 392.804 104.433 395.274C68.2631 407.764 38.8931 438.574 33.2731 469.914C30.6131 484.724 31.8531 496.474 37.3631 508.764C40.6131 515.994 45.7731 521.044 53.7331 524.774C59.0731 527.284 60.1331 527.414 74.8531 527.354C88.8731 527.294 91.1131 527.034 98.3531 524.624C113.873 519.464 126.253 509.674 131.503 498.414C134.563 491.854 134.743 481.884 131.893 477.214C128.193 471.144 118.913 468.654 107.993 470.804C100.883 472.204 97.5931 471.114 95.7831 466.754C94.2231 462.984 95.5531 458.224 98.8631 455.764C100.233 454.744 104.663 453.004 108.703 451.884C118.043 449.304 122.953 446.784 128.353 441.804C142.853 428.444 135.003 417.464 115.613 423.994C109.293 426.124 105.873 428.134 100.073 433.104C94.3331 438.014 86.9731 436.214 85.2831 429.504C83.0631 420.624 106.433 407.374 126.353 406.214C135.093 405.704 135.543 405.794 141.793 409.054C147.143 411.844 148.653 413.224 150.713 417.224C156.153 427.804 152.433 441.644 141.283 452.264L135.573 457.714L138.533 459.254C150.553 465.464 156.113 484.304 150.863 501.054C143.363 525.004 122.553 540.494 88.4131 547.544C80.1431 549.254 37.3031 550.264 29.0031 548.954ZM159.673 519.044C156.793 516.464 156.423 515.504 156.043 509.504C155.803 505.824 156.183 500.724 156.883 498.124C160.273 485.474 173.433 466.394 185.263 456.984C200.783 444.634 217.313 441.734 224.373 450.114C227.453 453.784 227.323 455.634 223.263 465.234C215.563 483.484 211.853 492.954 211.853 494.354C211.853 498.684 219.053 493.664 237.863 476.234C251.143 463.924 251.493 463.424 258.703 446.664C260.853 441.644 263.473 439.914 268.893 439.914C270.863 439.914 272.313 440.694 273.363 442.294C274.813 444.504 274.733 445.174 272.343 451.544L269.753 458.414L278.423 449.124C288.193 438.654 293.313 435.404 298.473 436.374C302.263 437.084 304.053 439.624 304.053 444.294C304.053 446.024 301.083 454.574 297.453 463.284C293.823 472.004 290.853 480.014 290.853 481.084C290.853 482.974 290.933 482.984 293.943 481.224C295.643 480.224 302.703 474.014 309.623 467.414C322.123 455.494 322.253 455.324 328.063 443.194C331.283 436.484 334.903 430.294 336.103 429.444C339.633 426.974 345.503 427.454 347.413 430.364C349.433 433.444 349.483 433.304 339.163 455.194C334.533 465.034 330.883 473.824 331.053 474.734C332.013 479.714 352.993 453.784 361.553 437.034C367.213 425.964 370.123 422.924 375.103 422.924C378.103 422.914 381.853 425.994 381.853 428.464C381.853 429.324 378.753 437.084 374.963 445.714C362.103 475.004 362.723 476.044 382.273 458.044C389.673 451.234 394.133 446.254 396.083 442.614C409.073 418.414 434.413 402.854 443.603 413.434C448.553 419.134 444.893 431.774 437.233 435.404C433.043 437.394 431.523 437.314 429.413 434.974C427.893 433.304 427.823 432.544 428.853 429.414C429.513 427.414 429.763 425.494 429.413 425.134C427.983 423.714 414.303 439.544 410.573 446.934C402.373 463.154 405.753 468.894 419.693 462.414C431.323 456.994 456.043 437.094 461.773 428.524C476.193 407.004 497.813 393.844 512.163 397.864C517.103 399.244 519.153 400.954 520.683 404.974C521.823 407.964 519.893 413.934 511.953 431.914C502.813 452.594 504.873 452.284 531.443 428.944C544.823 417.194 545.253 416.684 549.153 408.154C551.343 403.344 553.813 398.634 554.633 397.684C556.893 395.064 562.373 394.374 565.353 396.324C568.373 398.304 568.503 400.724 565.853 405.914C564.753 408.074 563.853 410.124 563.853 410.484C563.853 410.844 567.913 407.284 572.863 402.564C582.763 393.144 587.753 390.634 592.373 392.744C595.293 394.074 597.213 398.324 596.393 401.624C596.073 402.884 595.933 403.914 596.083 403.914C596.233 403.904 599.713 400.744 603.823 396.884C612.523 388.714 617.263 386.644 621.293 389.284C626.453 392.664 625.993 395.914 617.453 416.414C613.153 426.724 611.863 431.944 613.603 431.884C614.763 431.854 621.823 426.204 631.723 417.414C640.673 409.454 640.753 409.344 647.803 394.604C654.233 381.174 655.213 379.664 658.443 378.314C662.213 376.734 665.233 377.164 668.103 379.684C670.563 381.854 670.333 383.474 666.333 391.824L662.803 399.174L666.613 398.564C674.413 397.324 682.273 401.764 683.543 408.134C683.853 409.664 684.313 410.914 684.563 410.914C684.823 410.914 687.033 409.474 689.483 407.714C692.073 405.854 696.173 401.154 699.293 396.464C712.583 376.514 732.443 364.274 742.853 369.614C749.973 373.274 749.973 383.554 742.853 391.034C740.153 393.874 738.353 394.914 736.133 394.914C731.613 394.914 730.233 392.694 731.593 387.594C732.203 385.304 732.513 383.244 732.283 383.014C731.383 382.104 724.113 388.184 719.563 393.654C713.653 400.754 708.783 410.384 708.113 416.274C707.693 420.064 707.923 420.884 709.743 421.854C714.623 424.464 730.263 417.014 744.353 405.364C747.103 403.084 750.333 400.704 751.533 400.074C754.373 398.564 759.133 398.594 760.653 400.114C762.513 401.974 762.073 407.434 759.733 411.404C758.563 413.384 757.843 415.234 758.133 415.534C758.963 416.354 763.913 413.464 768.623 409.404L772.893 405.724L769.923 402.344C762.733 394.154 765.803 381.734 777.743 370.674C786.143 362.904 799.413 358.264 806.033 360.784C808.043 361.554 809.693 361.424 812.673 360.254C816.073 358.914 817.033 358.894 819.493 360.064C824.223 362.324 823.773 365.804 816.803 381.004C809.333 397.314 804.633 410.974 805.043 415.204C805.263 417.384 806.173 418.804 808.023 419.844C810.403 421.174 811.253 421.154 816.043 419.644C818.993 418.714 824.093 416.304 827.383 414.294C839.453 406.894 842.383 406.394 844.663 411.384C847.253 417.074 840.923 423.764 826.013 431.124C817.173 435.484 814.613 436.294 808.393 436.694C795.213 437.534 789.073 433.464 788.153 423.274C787.863 420.054 788.113 415.644 788.713 413.474C789.313 411.304 789.593 409.314 789.333 409.064C789.083 408.814 784.703 412.634 779.613 417.554C765.213 431.484 754.213 435.874 746.103 430.924C744.313 429.834 742.843 428.604 742.833 428.174C742.833 427.754 742.423 426.784 741.943 426.014C741.223 424.894 739.523 425.484 733.203 429.074C719.123 437.064 711.873 439.204 703.383 437.914C697.043 436.954 693.653 434.214 691.853 428.594C691.023 426.024 689.953 423.924 689.473 423.924C687.583 423.904 681.143 428.494 676.823 432.924C668.203 441.764 652.573 446.954 643.533 443.974C639.483 442.634 634.853 437.764 634.853 434.834C634.853 433.784 634.613 432.914 634.323 432.914C634.033 432.914 630.773 435.414 627.073 438.464C619.353 444.834 609.843 449.914 605.643 449.914C595.353 449.914 593.193 441.364 599.443 425.414C604.463 412.624 604.593 411.764 600.913 415.914C596.103 421.344 585.503 436.744 581.793 443.704C577.583 451.574 576.083 452.924 571.343 453.104C568.443 453.214 567.083 452.684 565.613 450.874C563.023 447.674 563.513 445.834 571.263 429.344C574.843 421.734 577.563 415.294 577.323 415.044C575.953 413.684 556.913 436.914 549.333 449.174C543.713 458.294 542.433 459.544 537.823 460.394C535.043 460.914 533.703 460.584 531.473 458.834C528.963 456.854 528.713 456.164 529.273 452.684C529.993 448.184 530.403 448.064 520.963 455.214C511.713 462.244 502.733 466.314 498.173 465.574C493.593 464.834 491.053 462.494 490.263 458.294L489.633 454.954L482.993 460.954C468.993 473.624 457.313 475.504 452.343 465.904C451.523 464.314 450.853 461.864 450.853 460.464C450.853 457.604 449.703 457.184 447.883 459.384C445.433 462.334 425.553 475.174 419.853 477.494C411.783 480.774 405.303 482.094 401.133 481.304C397.533 480.634 390.863 475.614 390.833 473.564C390.833 472.934 390.423 471.774 389.923 471.004C389.223 469.894 387.433 471.044 381.693 476.304C372.243 484.944 363.533 489.404 357.623 488.614C352.653 487.944 349.853 485.094 349.853 480.694V477.694L343.763 483.334C335.283 491.184 328.533 494.894 322.673 494.904C318.823 494.914 317.633 494.454 315.953 492.314C314.823 490.884 313.623 488.214 313.283 486.384L312.653 483.054L304.723 489.904C293.863 499.284 288.563 502.264 282.533 502.344C278.413 502.404 277.313 501.994 275.263 499.604C271.003 494.654 272.613 483.204 279.483 469.654C280.863 466.934 281.723 464.444 281.393 464.124C280.193 462.924 262.803 485.594 255.513 497.844C250.363 506.504 247.323 508.914 241.553 508.914C236.613 508.914 234.463 506.154 235.353 500.924L236.043 496.804L229.423 502.104C215.553 513.224 205.173 517.754 199.973 514.984C197.503 513.654 194.853 508.924 194.853 505.824C194.853 504.024 193.733 504.784 188.573 510.084C177.413 521.514 166.303 524.964 159.673 519.044ZM179.123 500.334C188.583 492.964 209.013 464.874 207.723 461.014C207.083 459.104 198.893 463.944 192.233 470.174C182.793 479.004 172.853 495.304 172.853 501.954C172.853 504.694 173.853 504.434 179.123 500.334ZM480.783 444.124C492.723 431.884 504.633 414.134 502.013 412.514C500.333 411.474 492.273 416.494 485.913 422.534C474.803 433.074 464.673 452.914 470.403 452.914C471.403 452.914 476.073 448.964 480.783 444.124ZM657.863 428.914C659.423 428.914 664.913 423.694 666.423 420.784C668.503 416.754 666.903 413.904 662.563 413.934C658.753 413.964 655.663 416.224 653.463 420.614C650.643 426.224 651.753 430.574 655.683 429.334C656.413 429.104 657.393 428.914 657.863 428.914ZM792.693 388.594C797.023 384.454 801.403 377.064 800.213 375.874C797.393 373.054 784.743 381.534 783.323 387.184C781.653 393.834 786.443 394.554 792.693 388.594Z" fill="black"/>
</svg>
